Coordinates
version=1
nRows=39
nColumns=34
inDegrees=no

Units are S.I. units (second, meters, Newtons, ...)
If the header above contains a line with 'inDegrees', this indicates whether rotational values are in degrees (yes) or radians (no).

endheader
time	pelvis_tilt	pelvis_list	pelvis_rotation	pelvis_tx	pelvis_ty	pelvis_tz	hip_flexion_r	hip_adduction_r	hip_rotation_r	knee_angle_r	ankle_angle_r	subtalar_angle_r	mtp_angle_r	hip_flexion_l	hip_adduction_l	hip_rotation_l	knee_angle_l	ankle_angle_l	subtalar_angle_l	mtp_angle_l	lumbar_extension	lumbar_bending	lumbar_rotation	arm_flex_r	arm_add_r	arm_rot_r	elbow_flex_r	pro_sup_r	arm_flex_l	arm_add_l	arm_rot_l	elbow_flex_l	pro_sup_l
0	-0.0868429	0.0314911	-0.00110071	-1.12238	1.26908	-0.581379	0.0630321	-0.0497332	-0.129056	0.143471	0.35034	0.22995	0	0.0234519	0.0181349	0.095208	0.0539283	0.199926	-0.0722365	0	-0.0127565	-0.0459639	-0.025472	-0.0180857	-0.126967	0.150987	0.606287	2.09	-0.0102774	-0.167929	0.238065	0.5905	2.05514
0.01	-0.0870825	0.031207	-0.00142292	-1.12241	1.26909	-0.581404	0.0634079	-0.0493726	-0.12848	0.143514	0.349994	0.2293	0	0.0238574	0.0178827	0.0955862	0.0541704	0.199916	-0.0732012	0	-0.0131305	-0.0456351	-0.0249371	-0.0170925	-0.12662	0.15059	0.604842	2.09	-0.0095241	-0.167385	0.237304	0.59057	2.05573
0.02	-0.0873465	0.0310792	-0.00166959	-1.12245	1.2691	-0.581402	0.0639027	-0.0491818	-0.128004	0.143749	0.349696	0.228642	0	0.0243524	0.0177678	0.0959578	0.0545052	0.199765	-0.0740143	0	-0.0136753	-0.045468	-0.0243498	-0.0164622	-0.126253	0.149502	0.604096	2.09	-0.00876805	-0.16698	0.236746	0.590702	2.05636
0.03	-0.087588	0.031113	-0.00182455	-1.12249	1.26911	-0.581388	0.064385	-0.0492105	-0.127724	0.144046	0.349571	0.228386	0	0.024846	0.017796	0.0961502	0.0548864	0.199646	-0.0742505	0	-0.014412	-0.0455122	-0.0238349	-0.016094	-0.126115	0.148811	0.604053	2.09	-0.00807631	-0.166754	0.236416	0.591018	2.0568
0.04	-0.0878334	0.0311617	-0.00198953	-1.12254	1.26912	-0.581388	0.0650233	-0.0493125	-0.1274	0.144584	0.349625	0.228495	0	0.0253123	0.0178596	0.0962335	0.0552163	0.199665	-0.074251	0	-0.0152589	-0.0455816	-0.0232224	-0.0157265	-0.126145	0.148354	0.6041	2.09	-0.007271	-0.166522	0.236194	0.591355	2.05733
0.05	-0.0882576	0.0312304	-0.00226333	-1.12263	1.26912	-0.5814	0.0663221	-0.0494772	-0.126841	0.145874	0.350002	0.228794	0	0.0260258	0.0179844	0.0961881	0.0555927	0.199779	-0.0743353	0	-0.0160542	-0.0456164	-0.0222467	-0.0153051	-0.126245	0.147676	0.603997	2.09	-0.00613888	-0.166077	0.235742	0.591486	2.05811
0.06	-0.0889204	0.0313602	-0.00239441	-1.12272	1.26909	-0.58141	0.0680621	-0.0496997	-0.126255	0.147586	0.350686	0.229002	0	0.027044	0.0181653	0.0960214	0.0560296	0.199909	-0.0743095	0	-0.0165583	-0.0457036	-0.0212621	-0.0150311	-0.126328	0.1468	0.603963	2.09	-0.00498716	-0.165523	0.234806	0.591532	2.05873
0.07	-0.0896173	0.0315843	-0.00236876	-1.12281	1.26905	-0.581409	0.0698533	-0.0499854	-0.125808	0.149383	0.351434	0.228986	0	0.0282269	0.0184117	0.0957096	0.0566319	0.200154	-0.0738815	0	-0.0171048	-0.0459665	-0.0203505	-0.0148576	-0.126202	0.145252	0.604045	2.09	-0.00404253	-0.165229	0.233561	0.592311	2.0594
0.08	-0.0902262	0.0318668	-0.00224053	-1.1229	1.26902	-0.581401	0.0713457	-0.0503227	-0.12592	0.150829	0.351976	0.229096	0	0.0293624	0.0186834	0.095258	0.057297	0.200554	-0.0729097	0	-0.017834	-0.0463764	-0.0196734	-0.0148242	-0.125938	0.143182	0.604455	2.09	-0.00364172	-0.165533	0.232705	0.594454	2.0602
0.09	-0.0909054	0.0321927	-0.00204404	-1.12298	1.269	-0.581382	0.0728503	-0.0507779	-0.126745	0.152183	0.352534	0.230089	0	0.0306266	0.0189454	0.0946789	0.0580906	0.201165	-0.071193	0	-0.0186365	-0.0468849	-0.0192704	-0.0151439	-0.125839	0.141002	0.605786	2.09	-0.00378276	-0.166176	0.231836	0.597736	2.06066
0.1	-0.0917044	0.0325092	-0.00172062	-1.12307	1.26899	-0.581361	0.0746103	-0.0512722	-0.127669	0.153814	0.353301	0.231599	0	0.0321032	0.0191547	0.0942556	0.0590455	0.201881	-0.0690772	0	-0.0194916	-0.0473754	-0.0190939	-0.0157169	-0.126118	0.139338	0.607882	2.09	-0.00406722	-0.166635	0.230099	0.601067	2.06057
0.11	-0.0926542	0.0328154	-0.00141575	-1.12319	1.26898	-0.581334	0.0769327	-0.0517342	-0.1282	0.156142	0.354283	0.232838	0	0.0338561	0.0193547	0.0935611	0.0601547	0.202738	-0.0666183	0	-0.0203201	-0.047837	-0.01884	-0.0163346	-0.126608	0.137813	0.610156	2.09	-0.0044366	-0.166984	0.227287	0.6044	2.06072
0.12	-0.0937943	0.0330586	-0.00139617	-1.12334	1.26895	-0.581289	0.0798612	-0.0521073	-0.128456	0.159065	0.355274	0.233918	0	0.0358618	0.0195047	0.0921242	0.0613074	0.203672	-0.0639133	0	-0.0210909	-0.0482841	-0.0182991	-0.0168247	-0.127159	0.1362	0.612169	2.09	-0.00509052	-0.167688	0.224231	0.608344	2.06099
0.13	-0.0951609	0.0332444	-0.00156966	-1.12351	1.26891	-0.581231	0.0831084	-0.0524554	-0.128936	0.162024	0.356248	0.235469	0	0.038134	0.0195999	0.0902589	0.062493	0.204635	-0.0610568	0	-0.021872	-0.0487355	-0.0177607	-0.0172232	-0.127706	0.134252	0.61402	2.09	-0.00605694	-0.168583	0.220848	0.612736	2.06059
0.14	-0.0967244	0.0333658	-0.00160832	-1.1237	1.26886	-0.58119	0.0865222	-0.0527743	-0.129632	0.164888	0.357369	0.237196	0	0.0407251	0.0196523	0.0886828	0.0638287	0.205658	-0.0581269	0	-0.0227024	-0.0490972	-0.0175509	-0.0177209	-0.128341	0.131875	0.615981	2.09	-0.00713476	-0.169206	0.216227	0.616573	2.0598
0.15	-0.0984851	0.0334068	-0.00142965	-1.12392	1.26881	-0.581195	0.0906572	-0.0530479	-0.129933	0.168667	0.358739	0.238305	0	0.0437476	0.0196893	0.0874691	0.065451	0.206748	-0.0551785	0	-0.0235119	-0.0493182	-0.0175346	-0.0184041	-0.129105	0.128728	0.618004	2.09	-0.00819645	-0.1696	0.209883	0.619316	2.05962
0.16	-0.100477	0.0335101	-0.00106482	-1.12417	1.26875	-0.581254	0.0959682	-0.0534848	-0.129989	0.174144	0.360286	0.239007	0	0.0472351	0.0198604	0.086183	0.0673722	0.207822	-0.0521196	0	-0.0242622	-0.0495236	-0.0176414	-0.0193005	-0.129996	0.124494	0.620116	2.09	-0.00936337	-0.169799	0.201495	0.621139	2.06034
0.17	-0.102607	0.0338327	-0.000517325	-1.12441	1.2687	-0.581331	0.101769	-0.0542591	-0.131	0.180314	0.361933	0.240365	0	0.0509696	0.0202548	0.0847066	0.0694825	0.208812	-0.0487407	0	-0.0250584	-0.0498269	-0.0179816	-0.0206739	-0.131306	0.120155	0.622951	2.09	-0.0109142	-0.169706	0.191384	0.622582	2.06161
0.18	-0.104668	0.0343439	4.04278e-05	-1.12465	1.26865	-0.58139	0.106955	-0.0552977	-0.133221	0.185541	0.363745	0.242998	0	0.0547072	0.0207886	0.0829906	0.0717767	0.209987	-0.0447491	0	-0.0260735	-0.0503078	-0.0181981	-0.0227627	-0.133187	0.116475	0.626709	2.09	-0.0128888	-0.169683	0.181177	0.624151	2.06298
0.19	-0.106634	0.034923	0.000448594	-1.1249	1.26859	-0.581436	0.111447	-0.0564719	-0.135566	0.189649	0.36565	0.246692	0	0.0584808	0.0213635	0.0806379	0.0742859	0.211788	-0.0398367	0	-0.0273418	-0.0509808	-0.0178285	-0.0254617	-0.1352	0.111808	0.630576	2.09	-0.0149803	-0.169959	0.171547	0.625503	2.06419
0.2	-0.108698	0.0353968	0.000825841	-1.12518	1.26853	-0.581482	0.115851	-0.0575349	-0.137584	0.193334	0.367204	0.250544	0	0.0623805	0.0218146	0.0776415	0.0767459	0.214024	-0.0341524	0	-0.0287651	-0.0515084	-0.0172299	-0.0285249	-0.137016	0.104792	0.634003	2.09	-0.0172026	-0.170211	0.161109	0.625957	2.06556
0.21	-0.111415	0.0357397	0.00140471	-1.12548	1.26843	-0.581534	0.121722	-0.0594122	-0.14754	0.198678	0.371354	0.265255	0	0.0680743	0.0215406	0.0638886	0.0813407	0.223337	-0.0101802	0	-0.0299075	-0.0516946	-0.0173462	-0.0316444	-0.138548	0.0959351	0.636932	2.09	-0.0204832	-0.170015	0.145111	0.625666	2.07945
0.22	-0.113326	0.0356529	0.00201502	-1.12569	1.26842	-0.581607	0.124735	-0.059415	-0.148006	0.20009	0.370998	0.264334	0	0.0712732	0.0214898	0.0635852	0.0829207	0.223595	-0.0084665	0	-0.0321078	-0.0511906	-0.0179278	-0.0344142	-0.140468	0.0882919	0.638261	2.09	-0.0243017	-0.170488	0.133435	0.625671	2.07904
0.23	-0.115606	0.0357466	0.00254594	-1.12592	1.26833	-0.581624	0.128395	-0.0596768	-0.148624	0.20194	0.371348	0.264233	0	0.0751318	0.02156	0.0624044	0.0850077	0.224699	-0.00541486	0	-0.0342008	-0.0510652	-0.0186073	-0.037287	-0.142084	0.0793584	0.638674	2.09	-0.0291101	-0.171628	0.12174	0.626321	2.07958
0.24	-0.11849	0.0358297	0.00285261	-1.12625	1.26814	-0.581506	0.133522	-0.059884	-0.148755	0.205083	0.372289	0.264949	0	0.0796588	0.0215476	0.0610991	0.0869356	0.225852	-0.00289008	0	-0.0360441	-0.051187	-0.0186593	-0.0407768	-0.143681	0.0697503	0.639198	2.09	-0.0341309	-0.17364	0.111548	0.62644	2.08042
0.25	-0.121645	0.0356493	0.00308564	-1.12662	1.26794	-0.58135	0.139052	-0.0597509	-0.148649	0.208364	0.373129	0.265796	0	0.0842075	0.0213025	0.0607001	0.0882441	0.226285	-0.00222102	0	-0.0379548	-0.0509561	-0.0179764	-0.0453165	-0.145655	0.0596772	0.640486	2.09	-0.0389194	-0.175765	0.102264	0.624861	2.0809
0.26	-0.124557	0.0357949	0.00359298	-1.12688	1.26775	-0.581329	0.143751	-0.0600459	-0.148704	0.210928	0.373936	0.26604	0	0.0883175	0.0215758	0.061135	0.0894766	0.22643	-0.00229658	0	-0.0402557	-0.0507193	-0.0173226	-0.0510156	-0.148285	0.0494217	0.642386	2.09	-0.0440048	-0.177658	0.0935483	0.621823	2.08094
0.27	-0.127395	0.0366128	0.00434165	-1.12701	1.26756	-0.581415	0.148793	-0.0611606	-0.148494	0.214568	0.375375	0.265343	0	0.0924646	0.0226612	0.0614365	0.0912221	0.22698	-0.00159181	0	-0.0428228	-0.0509653	-0.0173835	-0.0574147	-0.151346	0.0395518	0.644559	2.09	-0.0503424	-0.179923	0.0855683	0.61887	2.08103
0.28	-0.130651	0.0374636	0.00498554	-1.12718	1.26734	-0.581442	0.155375	-0.0623378	-0.147892	0.220199	0.377335	0.264596	0	0.0973202	0.0237032	0.0611098	0.0933959	0.227843	-0.000133688	0	-0.0454188	-0.0512721	-0.0178716	-0.0638264	-0.154112	0.029565	0.646348	2.09	-0.0578251	-0.182646	0.0774962	0.616342	2.08118
0.29	-0.134248	0.037976	0.00555657	-1.1274	1.26714	-0.581396	0.162535	-0.0632999	-0.148285	0.226235	0.379182	0.26545	0	0.102847	0.0242788	0.0602393	0.0960038	0.22887	0.00204226	0	-0.0481386	-0.0513054	-0.0182762	-0.0702393	-0.156445	0.0189503	0.647239	2.09	-0.0656411	-0.185278	0.0688168	0.613137	2.08117
0.3	-0.137912	0.0387775	0.00632369	-1.12759	1.26693	-0.581383	0.16885	-0.0646656	-0.149634	0.230659	0.380593	0.267111	0	0.108877	0.0251441	0.0585207	0.0995225	0.230614	0.00600844	0	-0.0510647	-0.0516927	-0.0186169	-0.0772847	-0.158899	0.00815668	0.647725	2.09	-0.0739264	-0.188223	0.061117	0.609413	2.0816
0.31	-0.141727	0.0398624	0.00712564	-1.12774	1.26667	-0.581387	0.174662	-0.0660852	-0.149854	0.233676	0.381777	0.267252	0	0.11551	0.0262804	0.0556644	0.103993	0.233523	0.0120157	0	-0.0541566	-0.052355	-0.0188846	-0.0852975	-0.161562	-0.00315579	0.648816	2.09	-0.0831383	-0.192087	0.0555695	0.605965	2.08275
0.32	-0.145839	0.0404559	0.00778716	-1.12793	1.26635	-0.581311	0.181069	-0.0666625	-0.148349	0.236998	0.383264	0.265626	0	0.122748	0.0268271	0.0524364	0.108917	0.237174	0.0185518	0	-0.0574742	-0.0523465	-0.019097	-0.0940642	-0.164152	-0.0147952	0.651006	2.09	-0.0928928	-0.196063	0.0504023	0.602181	2.08357
0.33	-0.149905	0.0404205	0.00859444	-1.12818	1.26602	-0.581187	0.187982	-0.0665937	-0.146834	0.241376	0.384852	0.263774	0	0.130284	0.0267201	0.0495839	0.114326	0.241045	0.0247582	0	-0.0614179	-0.0515086	-0.0197516	-0.103027	-0.166889	-0.0249011	0.653772	2.09	-0.102895	-0.199134	0.0437692	0.597632	2.08301
0.34	-0.153704	0.040381	0.00956963	-1.12845	1.26571	-0.581111	0.194626	-0.066686	-0.146009	0.245806	0.385797	0.262294	0	0.138056	0.0266669	0.0464894	0.120671	0.245292	0.0314824	0	-0.0660955	-0.050663	-0.020941	-0.11181	-0.169938	-0.0337333	0.656296	2.09	-0.113481	-0.201582	0.0364499	0.592966	2.08134
0.35	-0.158048	0.0404834	0.0101667	-1.12872	1.26532	-0.581038	0.202148	-0.0669695	-0.1452	0.250624	0.386687	0.26112	0	0.147087	0.0265458	0.0405325	0.128369	0.251416	0.0421748	0	-0.0705143	-0.0500101	-0.0218561	-0.120932	-0.172961	-0.0435199	0.658946	2.09	-0.124565	-0.203722	0.0287896	0.587952	2.07875
0.36	-0.16308	0.0404546	0.0102377	-1.12899	1.26485	-0.580894	0.211033	-0.0670034	-0.143807	0.256517	0.388387	0.25963	0	0.157018	0.0261205	0.0341977	0.136483	0.257905	0.0527536	0	-0.0745226	-0.0491151	-0.022509	-0.130476	-0.176215	-0.0519702	0.661858	2.09	-0.135884	-0.205146	0.0187061	0.582228	2.0749
0.37	-0.168536	0.0401046	0.0104365	-1.12926	1.26432	-0.580724	0.220563	-0.066562	-0.141886	0.262835	0.39027	0.256933	0	0.167681	0.025238	0.0277923	0.145149	0.264851	0.0639795	0	-0.0785188	-0.0477449	-0.0237425	-0.139745	-0.179442	-0.0589452	0.664469	2.09	-0.147683	-0.205954	0.00623371	0.576653	2.06961
0.38	-0.173666	0.0395792	0.0111877	-1.12953	1.26381	-0.580608	0.229296	-0.0659069	-0.139766	0.268457	0.391614	0.253412	0	0.1783	0.0241852	0.0215568	0.154327	0.272091	0.0760588	0	-0.0833732	-0.046215	-0.02561	-0.148275	-0.182092	-0.0668894	0.666276	2.09	-0.159953	-0.207316	-0.00325613	0.571416	2.06479
